<?xml version="1.0" encoding="iso-8859-1"?>
<!-- Uploaded to: SVG Repo, www.svgrepo.com, Generator: SVG Repo Mixer Tools -->
<svg height="800px" width="800px" version="1.1" id="Layer_1" xmlns="http://www.w3.org/2000/svg" xmlns:xlink="http://www.w3.org/1999/xlink" 
	 viewBox="0 0 496.246 496.246" xml:space="preserve">
<path style="fill:#75BABA;" d="M137.058,85.465c-11.028,0-22.843,0.788-33.083,3.151c25.206,27.569,41.748,114.215,41.748,157.538
	c0,82.708-56.714,103.188-126.031,106.338c31.508,24.418,72.468,40.172,118.154,40.172c96.886,0,236.308-28.357,236.308-112.64
	C373.366,194.954,233.945,85.465,137.058,85.465z"/>
<path style="fill:#599997;" d="M137.058,85.465c-11.028,0-22.843,0.788-33.083,3.151c25.206,27.569,41.748,114.215,41.748,157.538
	c0,82.708-56.714,103.188-126.031,106.338c31.508,24.418,72.468,40.172,118.154,40.172c96.886,0,156.751-15.754,156.751-100.037
	C293.809,207.557,233.945,85.465,137.058,85.465z"/>
<path style="fill:#1977CC;" d="M467.102,282.388c-11.815,0-22.843-3.938-31.508-11.028c-8.665,7.089-19.692,11.028-31.508,11.028
	c-11.815,0-22.843-3.938-31.508-11.028c-8.665,7.089-19.692,11.028-31.508,11.028c-11.815,0-22.843-3.938-31.508-11.028
	c-8.665,7.089-19.692,11.028-31.508,11.028c-11.815,0-22.843-3.938-31.508-11.028c-8.665,7.089-19.692,11.028-31.508,11.028
	s-22.843-3.938-31.508-11.028c-8.665,7.089-19.692,11.028-31.508,11.028s-22.843-3.938-31.508-11.028
	c-8.665,7.089-19.692,11.028-31.508,11.028s-22.843-3.938-31.508-11.028c-8.665,7.089-19.692,11.028-31.508,11.028
	c-9.452,0-18.117-2.363-25.994-7.089v135.483h496.246V275.298C485.218,280.025,476.554,282.388,467.102,282.388z"/>
<g>
	<path style="fill:#17AACC;" d="M467.102,282.388c-11.815,0-22.843-3.938-31.508-11.028c-8.665,7.089-19.692,11.028-31.508,11.028
		c-11.815,0-22.843-3.938-31.508-11.028c-8.665,7.089-19.692,11.028-31.508,11.028c-11.815,0-22.843-3.938-31.508-11.028
		c-8.665,7.089-19.692,11.028-31.508,11.028c-11.815,0-22.843-3.938-31.508-11.028c-8.665,7.089-19.692,11.028-31.508,11.028
		s-22.843-3.938-31.508-11.028c-8.665,7.089-19.692,11.028-31.508,11.028s-22.843-3.938-31.508-11.028
		c-8.665,7.089-19.692,11.028-31.508,11.028s-22.843-3.938-31.508-11.028c-8.665,7.089-19.692,11.028-31.508,11.028
		c-9.452,0-18.117-2.363-25.994-7.089v38.597c7.877,4.726,16.542,7.089,25.994,7.089c11.815,0,22.843-3.938,31.508-11.028
		c8.665,7.089,19.692,11.028,31.508,11.028s22.843-3.938,31.508-11.028c8.665,7.089,19.692,11.028,31.508,11.028
		s22.843-3.938,31.508-11.028c8.665,7.089,19.692,11.028,31.508,11.028s22.843-3.938,31.508-11.028
		c8.665,7.089,19.692,11.028,31.508,11.028c11.815,0,22.843-3.938,31.508-11.028c8.665,7.089,19.692,11.028,31.508,11.028
		c11.815,0,22.843-3.938,31.508-11.028c8.665,7.089,19.692,11.028,31.508,11.028c11.815,0,22.843-3.938,31.508-11.028
		c8.665,7.089,19.692,11.028,31.508,11.028c9.452,0,18.117-2.363,25.994-7.089v-38.597
		C485.218,280.025,476.554,282.388,467.102,282.388z"/>
	<path style="fill:#17AACC;" d="M435.594,348.554c-8.665,7.089-19.692,11.028-31.508,11.028c-11.815,0-22.843-3.938-31.508-11.028
		c-8.665,7.089-19.692,11.028-31.508,11.028c-11.815,0-22.843-3.938-31.508-11.028c-8.665,7.089-19.692,11.028-31.508,11.028
		c-11.815,0-22.843-3.938-31.508-11.028c-8.665,7.089-19.692,11.028-31.508,11.028s-22.843-3.938-31.508-11.028
		c-8.665,7.089-19.692,11.028-31.508,11.028s-22.843-3.938-31.508-11.028c-8.665,7.089-19.692,11.028-31.508,11.028
		s-22.843-3.938-31.508-11.028c-8.665,7.089-19.692,11.028-31.508,11.028c-9.452,0-18.117-2.363-25.994-7.089v38.597
		c7.877,4.726,16.542,7.089,25.994,7.089c11.815,0,22.843-3.938,31.508-11.028c8.665,7.089,19.692,11.028,31.508,11.028
		s22.843-3.938,31.508-11.028c8.665,7.089,19.692,11.028,31.508,11.028s22.843-3.938,31.508-11.028
		c8.665,7.089,19.692,11.028,31.508,11.028s22.843-3.938,31.508-11.028c8.665,7.089,19.692,11.028,31.508,11.028
		c11.815,0,22.843-3.938,31.508-11.028c8.665,7.089,19.692,11.028,31.508,11.028c11.815,0,22.843-3.938,31.508-11.028
		c8.665,7.089,19.692,11.028,31.508,11.028c11.815,0,22.843-3.938,31.508-11.028c8.665,7.089,19.692,11.028,31.508,11.028
		c9.452,0,18.117-2.363,25.994-7.089v-38.597c-7.877,4.726-16.542,7.089-25.994,7.089
		C455.286,359.582,444.258,354.855,435.594,348.554z"/>
	<path style="fill:#17AACC;" d="M419.84,109.095c-2.363,7.877-24.418,49.625-32.295,46.474c-7.877-2.363,0.788-48.837,3.938-56.714
		c2.363-7.877,11.028-11.815,18.905-9.452C418.265,92.554,422.203,101.218,419.84,109.095z"/>
	<path style="fill:#17AACC;" d="M432.443,179.2c-5.514,2.363-37.022,12.603-39.385,7.089s25.206-23.631,29.932-26.782
		c5.514-2.363,11.815,0,14.178,4.726C439.532,170.535,437.169,176.837,432.443,179.2z"/>
	<path style="fill:#17AACC;" d="M356.825,138.24c2.363,5.514,12.603,37.022,7.089,39.385c-5.514,2.363-23.631-25.206-26.782-29.932
		c-2.363-5.514,0-11.815,4.726-14.178C347.372,130.363,353.674,132.726,356.825,138.24z"/>
	<circle style="fill:#17AACC;" cx="369.428" cy="194.954" r="5.514"/>
	<circle style="fill:#17AACC;" cx="460.012" cy="103.582" r="12.603"/>
</g>
</svg>